<?xml version="1.0" encoding="utf-8"?>
<!-- Generator: Adobe Illustrator 27.7.0, SVG Export Plug-In . SVG Version: 6.00 Build 0)  -->
<svg version="1.1" id="Layer_1" xmlns="http://www.w3.org/2000/svg" xmlns:xlink="http://www.w3.org/1999/xlink" x="0px" y="0px"
	 viewBox="0 0 396.5 396.5" style="enable-background:new 0 0 396.5 396.5;" xml:space="preserve">
<style type="text/css">
	.st0{fill:#2C3E50;stroke:#2C3E50;stroke-miterlimit:10;}
</style>
<path class="st0" d="M340,106.1H103.5c-21.9,0-39.8-17.8-39.8-39.8c0-21.9,17.8-39.8,39.8-39.8h236.6c5.9,0,10.6-4.8,10.6-10.6
	c0-5.9-4.8-10.6-10.6-10.6H103.5c-33.7,0-61.1,27.4-61.1,61.1v266.2c0,33.7,27.4,61.1,61.1,61.1h236.6c5.9,0,10.6-4.8,10.6-10.6
	V116.8C350.7,110.9,346,106.1,340,106.1L340,106.1z M329.4,372.3H103.5c-21.9,0-39.8-17.8-39.8-39.8V112.7
	c10.7,9.2,24.6,14.8,39.8,14.8h225.9V372.3z"/>
<path class="st0" d="M106.9,56.6c-5.9,0-10.6,4.8-10.6,10.6s4.8,10.6,10.6,10.6h199.8c5.9,0,10.6-4.8,10.6-10.6s-4.8-10.6-10.6-10.6
	C306.7,56.6,106.9,56.6,106.9,56.6z"/>
<path class="st0" d="M119.6,192.6L119.6,192.6c0-6.3,5.2-11.5,11.5-11.5H262c6.3,0,11.5,5.2,11.5,11.5l0,0c0,6.3-5.2,11.5-11.5,11.5
	H131.1C124.8,204.1,119.6,198.9,119.6,192.6z"/>
<path class="st0" d="M173.4,318.8L173.4,318.8c0-6.3,5.2-11.5,11.5-11.5h23.4c6.3,0,11.5,5.2,11.5,11.5l0,0
	c0,6.3-5.2,11.5-11.5,11.5h-23.4C178.5,330.3,173.4,325.1,173.4,318.8z"/>
</svg>
