<?xml version="1.0" encoding="utf-8"?>
<!-- Generator: Adobe Illustrator 27.7.0, SVG Export Plug-In . SVG Version: 6.00 Build 0)  -->
<svg version="1.1" id="Layer_1" xmlns="http://www.w3.org/2000/svg" xmlns:xlink="http://www.w3.org/1999/xlink" x="0px" y="0px"
	 viewBox="0 0 524.3 524.3" style="enable-background:new 0 0 524.3 524.3;" xml:space="preserve">
<style type="text/css">
	.st0{fill:#2C3E50;stroke:#2C3E50;stroke-miterlimit:10;}
</style>
<path class="st0" d="M477.4,436.1c21.3,0,38.7-17.4,38.7-38.7V126.2c0-21.3-17.4-38.7-38.7-38.7h-36.5v-49
	c0-16.4-13.3-29.7-29.7-29.7H112.7C96.3,8.8,83,22.1,83,38.5v49H46.5c-21.3,0-38.7,17.3-38.7,38.7v271.2c0,21.3,17.4,38.7,38.7,38.7
	H217l-23.6,62.6h-24.2c-5,0-9.1,4.1-9.1,9.1s4.1,9.2,9.1,9.2h185.3c5,0,9.1-4.1,9.1-9.2s-4.1-9.1-9.1-9.1h-24.2l-23.6-62.6H477.4z
	 M440.9,105.8h36.5c11.2,0,20.4,9.1,20.4,20.4v201.2h-56.9L440.9,105.8L440.9,105.8z M101.3,38.5c0-6.3,5.1-11.4,11.4-11.4h298.4
	c6.3,0,11.4,5.1,11.4,11.4v288.8H101.3V38.5z M26.1,126.2c0-11.2,9.1-20.4,20.4-20.4H83v221.6H26.1V126.2z M46.5,417.8
	c-11.2,0-20.4-9.1-20.4-20.4v-51.8h471.6v51.8c0,11.2-9.1,20.4-20.4,20.4H46.5z M310.9,498.7H213l23.6-62.6h50.7L310.9,498.7z"/>
<path class="st0" d="M274.9,371.7h-26c-5,0-9.1,4.1-9.1,9.1s4.1,9.1,9.1,9.1h26c5,0,9.1-4.1,9.1-9.1S280,371.7,274.9,371.7z"/>
<path class="st0" d="M381.8,65.3H143.1c-5,0-9.1,4.1-9.1,9.2v88.4c0,5,4.1,9.1,9.1,9.1h238.7c5,0,9.1-4.1,9.1-9.1V74.5
	c0-2.4-1-4.7-2.7-6.5C386.5,66.3,384.2,65.3,381.8,65.3z M372.6,153.7H152.2V83.6h220.4L372.6,153.7L372.6,153.7z"/>
<path class="st0" d="M231.4,204.5h-88.3c-5,0-9.1,4.1-9.1,9.1c0,5,4.1,9.1,9.1,9.1h88.3c5,0,9.1-4.1,9.1-9.1
	C240.6,208.6,236.5,204.5,231.4,204.5z"/>
<path class="st0" d="M381.8,204.5h-89.4c-5,0-9.1,4.1-9.1,9.1c0,5,4.1,9.1,9.1,9.1h89.4c5,0,9.1-4.1,9.1-9.1
	C390.9,208.6,386.8,204.5,381.8,204.5z"/>
<path class="st0" d="M381.8,255.3H143.1c-5,0-9.1,4.1-9.1,9.2c0,5,4.1,9.1,9.1,9.1h238.7c5,0,9.1-4.1,9.1-9.1
	C390.9,259.4,386.8,255.3,381.8,255.3z"/>
</svg>
