<?xml version="1.0" encoding="utf-8"?>
<!-- Generator: Adobe Illustrator 27.7.0, SVG Export Plug-In . SVG Version: 6.00 Build 0)  -->
<svg version="1.1" id="Layer_1" xmlns="http://www.w3.org/2000/svg" xmlns:xlink="http://www.w3.org/1999/xlink" x="0px" y="0px"
	 viewBox="0 0 147.2 147.2" style="enable-background:new 0 0 147.2 147.2;" xml:space="preserve">
<style type="text/css">
	.st0{fill:#2C3E50;stroke:#2C3E50;stroke-miterlimit:10;}
</style>
<g>
	<path class="st0" d="M72.3,70.9c9.5,0,17.8-3.4,24.6-10.2s10.2-15,10.2-24.5s-3.4-17.8-10.2-24.5c-6.7-6.8-15-10.2-24.5-10.2
		S54.5,4.9,47.8,11.6s-10.2,15-10.2,24.5S41,54,47.8,60.7C54.5,67.5,62.8,70.9,72.3,70.9L72.3,70.9z M53.7,17.6
		c5.2-5.2,11.3-7.7,18.6-7.7s13.4,2.5,18.6,7.7s7.7,11.3,7.7,18.6s-2.5,13.4-7.7,18.6s-11.3,7.7-18.6,7.7s-13.4-2.5-18.6-7.7
		S46,43.5,46,36.2S48.6,22.8,53.7,17.6L53.7,17.6z"/>
	<path class="st0" d="M133.1,112.3c-0.2-2.8-0.6-5.9-1.2-9.1c-0.6-3.3-1.3-6.3-2.2-9.2c-0.9-2.9-2.2-5.8-3.8-8.5
		c-1.6-2.9-3.5-5.3-5.7-7.4c-2.2-2.1-5-3.9-8.2-5.1c-3.2-1.2-6.7-1.9-10.4-1.9c-1.5,0-2.9,0.6-5.6,2.4c-1.7,1.1-3.7,2.4-5.9,3.8
		c-1.9,1.2-4.4,2.3-7.6,3.3c-3.1,1-6.2,1.5-9.3,1.5c-3.1,0-6.2-0.5-9.3-1.5c-3.2-1-5.7-2.2-7.6-3.3c-2.2-1.4-4.2-2.7-5.9-3.8
		c-2.8-1.8-4.2-2.4-5.6-2.4c-3.8,0-7.2,0.6-10.4,1.9c-3.2,1.3-5.9,3-8.2,5.1c-2.1,2.1-4,4.5-5.7,7.4c-1.6,2.8-2.8,5.6-3.8,8.5
		c-0.9,2.8-1.7,5.9-2.2,9.2c-0.6,3.2-1,6.3-1.2,9.1c-0.2,2.8-0.3,5.6-0.3,8.5c0,7.5,2.4,13.6,7.1,18.1c4.7,4.4,10.8,6.7,18.3,6.7
		h69.4c7.5,0,13.7-2.2,18.3-6.7c4.7-4.5,7.1-10.6,7.1-18.1C133.4,117.9,133.3,115.1,133.1,112.3L133.1,112.3z M120.4,132.8
		c-3.1,2.9-7.2,4.4-12.5,4.4H38.5c-5.3,0-9.4-1.4-12.5-4.4c-3-2.9-4.5-6.8-4.5-12c0-2.7,0.1-5.4,0.3-7.9c0.2-2.5,0.5-5.3,1.1-8.2
		c0.5-2.9,1.2-5.6,2-8.1c0.8-2.4,1.8-4.7,3.1-6.9c1.2-2.2,2.6-4,4.2-5.5c1.5-1.4,3.3-2.5,5.4-3.4c2-0.8,4.2-1.2,6.7-1.3
		c0.3,0.2,0.8,0.5,1.7,1c1.7,1.1,3.7,2.4,6,3.8c2.5,1.6,5.7,3,9.5,4.3c3.9,1.3,7.9,1.9,11.9,1.9s8-0.6,11.9-1.9
		c3.8-1.2,7.1-2.7,9.6-4.3c2.3-1.4,4.2-2.7,5.9-3.8c0.8-0.6,1.4-0.9,1.7-1c2.4,0.1,4.7,0.5,6.7,1.3c2.2,0.8,4,2,5.4,3.4
		c1.6,1.5,2.9,3.3,4.2,5.5c1.3,2.2,2.3,4.6,3.1,6.9c0.8,2.5,1.4,5.2,2,8.1c0.5,2.9,0.9,5.7,1.1,8.2l0,0c0.2,2.6,0.3,5.2,0.3,7.9
		C124.9,126,123.5,130,120.4,132.8L120.4,132.8z"/>
</g>
</svg>
