<?xml version="1.0" encoding="utf-8"?>
<!-- Generator: Adobe Illustrator 27.7.0, SVG Export Plug-In . SVG Version: 6.00 Build 0)  -->
<svg version="1.1" id="Layer_1" xmlns="http://www.w3.org/2000/svg" xmlns:xlink="http://www.w3.org/1999/xlink" x="0px" y="0px"
	 viewBox="0 0 554.5 554.5" style="enable-background:new 0 0 554.5 554.5;" xml:space="preserve">
<style type="text/css">
	.st0{fill:#2C3E50;stroke:#2C3E50;stroke-miterlimit:10;}
</style>
<g>
	<path class="st0" d="M387.9,475.3c-4.9-1.2-9.8,1.7-11,6.6l-9,36.2c-1.2,4.9,1.7,9.8,6.6,11c0.7,0.2,1.5,0.3,2.2,0.3
		c4,0,7.7-2.7,8.8-6.8l9-36.2C395.7,481.4,392.8,476.5,387.9,475.3L387.9,475.3z"/>
	<path class="st0" d="M277.2,294.2c1.2,0,2.4-0.2,3.5-0.7l99.4-41.2c4.6-1.9,6.8-7.2,4.9-11.8c-1.9-4.6-7.2-6.8-11.8-4.9l-96,39.7
		L24.1,170.6v-3c0-5-4-9-9-9s-9,4.1-9,9v9c0,3.7,2.2,7,5.6,8.4l262.2,108.5C274.9,294,276,294.2,277.2,294.2L277.2,294.2z"/>
	<path class="st0" d="M384.8,386.8c-2.2-4.5-7.6-6.3-12.1-4.1c-17.2,8.5-45.9,18.4-86.4,19.7v-81.1c0-5-4-9-9-9c-5,0-9,4-9,9v81
		c-112.3-3.6-148.5-71.6-153.7-82.9V258c0-5-4.1-9-9-9s-9,4.1-9,9v63.3c0,1.1,0.2,2.3,0.6,3.4c1.6,3.9,40.1,96.1,180.2,96.1
		c49,0,83.3-11.9,103.5-21.8C385.2,396.7,387,391.3,384.8,386.8L384.8,386.8z"/>
	<path class="st0" d="M412.8,484.1c-5,0-9,4-9,9v27.1c0,5,4,9,9,9s9-4,9-9v-27.1C421.9,488.1,417.8,484.1,412.8,484.1L412.8,484.1z"
		/>
	<path class="st0" d="M539.4,158.6c-5,0-9,4.1-9,9v3l-108.5,44.7v-16.3l121-50.1c3.4-1.4,5.6-4.7,5.6-8.3c0-3.7-2.2-6.9-5.6-8.4
		L280.7,23.7c-2.2-0.9-4.7-0.9-6.9,0L11.6,132.2c-3.4,1.4-5.6,4.7-5.6,8.4s2.2,7,5.6,8.4l262.2,108.5c1.1,0.5,2.3,0.7,3.5,0.7
		c1.2,0,2.4-0.2,3.5-0.7l94.8-39.2c4.6-1.9,6.8-7.2,4.9-11.8s-7.2-6.8-11.8-4.9l-91.3,37.8L38.7,140.5l238.5-98.7l238.5,98.7
		L412,183.5l-99.4-37.1c0.5-1.9,0.8-3.8,0.8-5.8c0-15.2-15.9-27.1-36.2-27.1s-36.2,11.9-36.2,27.1c0,15.2,15.9,27.1,36.2,27.1
		c9,0,17.1-2.5,23.4-6.4l103.2,38.5v222.7c-10.5,3.8-18.1,13.7-18.1,25.5c0,15,12.2,27.1,27.1,27.1c15,0,27.1-12.2,27.1-27.1
		c0-11.8-7.6-21.7-18.1-25.5v-51.3c26-19.6,35.3-45.7,35.7-46.8c0.3-1,0.5-2,0.5-3V258c0-5-4-9-9-9s-9,4.1-9,9v61.6
		c-1.6,3.8-7,15.6-18.1,27.3V234.8l121-49.8c3.4-1.4,5.6-4.7,5.6-8.4v-9C548.5,162.7,544.4,158.6,539.4,158.6L539.4,158.6z
		 M277.2,149.6c-11,0-18.1-5.3-18.1-9s7-9,18.1-9c11,0,18.1,5.4,18.1,9S288.3,149.6,277.2,149.6L277.2,149.6z M412.8,456.9
		c-5,0-9-4.1-9-9s4-9,9-9c5,0,9,4,9,9C421.9,452.9,417.8,456.9,412.8,456.9L412.8,456.9z"/>
	<path class="st0" d="M448.7,481.9c-1.2-4.8-6.1-7.8-11-6.6c-4.9,1.2-7.8,6.1-6.6,11l9,36.2c1,4.1,4.7,6.8,8.8,6.8
		c0.7,0,1.5-0.1,2.2-0.3c4.9-1.2,7.8-6.1,6.6-11L448.7,481.9z"/>
</g>
</svg>
