<?xml version="1.0" encoding="utf-8"?>
<!-- Generator: Adobe Illustrator 27.7.0, SVG Export Plug-In . SVG Version: 6.00 Build 0)  -->
<svg version="1.1" id="Layer_1" xmlns="http://www.w3.org/2000/svg" xmlns:xlink="http://www.w3.org/1999/xlink" x="0px" y="0px"
	 viewBox="0 0 593.5 593.5" style="enable-background:new 0 0 593.5 593.5;" xml:space="preserve">
<style type="text/css">
	.st0{fill:#2C3E50;stroke:#000000;stroke-miterlimit:10;}
</style>
<path class="st0" d="M201.8,334c0,0-26.3,0-26.6,0c-3.3,0.2-6.5,1.6-8.9,4l-79,79c0,0,0-70-0.1-70.4c-0.6-7.1-6.6-12.8-13.9-12.8
	H33.4c-3,0-5.4-2.4-5.4-5.4V89.7c0-3,2.4-5.4,5.4-5.4h398.2c3,0,5.4,2.4,5.4,5.4v91.7c0,7.7,6.3,14,14,14s14-6.3,14-14V89.7
	c0-18.4-15-33.4-33.4-33.4H33.4C15,56.3,0,71.3,0,89.7v238.9C0,347,15,362,33.4,362h25.8v88.9c0,5.7,3.4,10.8,8.6,12.9
	c1.7,0.7,3.6,1.1,5.4,1.1c3.6,0,7.2-1.4,9.9-4.1L182,362h19.8c7.7,0,14-6.3,14-14C215.8,340.2,209.5,334,201.8,334z"/>
<path class="st0" d="M560.1,227.5H281.4c-18.4,0-33.4,15-33.4,33.4v163c0,18.4,15,33.4,33.4,33.4h174.5l70.7,70.7
	c2.7,2.7,6.3,4.1,9.9,4.1c1.8,0,3.6-0.3,5.4-1.1c5.2-2.2,8.6-7.3,8.6-12.9v-60.8h9.6c18.4,0,33.4-15,33.4-33.4V261
	C593.5,242.5,578.5,227.5,560.1,227.5z M565.5,423.9c0,3-2.4,5.4-5.4,5.4h-23.6c-7.4,0-13.4,5.7-14,12.9c0,0.3-0.1,42.1-0.1,42.1
	l-50.8-50.8c0,0-0.1-0.1-0.2-0.2c-0.2-0.2-0.4-0.4-0.6-0.5c-2.5-2.2-5.7-3.5-9.2-3.5H281.4c-3,0-5.4-2.4-5.4-5.4V261
	c0-3,2.4-5.4,5.4-5.4h278.7c3,0,5.4,2.4,5.4,5.4L565.5,423.9L565.5,423.9z"/>
<path class="st0" d="M420.8,328.4c-7.7,0-14,6.3-14,14s6.3,14,14,14s14-6.3,14-14S428.5,328.4,420.8,328.4z"/>
<path class="st0" d="M105.1,148.8c-7.7,0-14,6.3-14,14c0,7.7,6.3,14,14,14h254.8c7.7,0,14-6.3,14-14c0-7.7-6.3-14-14-14H105.1z"/>
<path class="st0" d="M201.8,241.4h-96.7c-7.7,0-14,6.3-14,14c0,7.7,6.3,14,14,14h96.7c7.7,0,14-6.3,14-14
	C215.8,247.7,209.5,241.4,201.8,241.4z"/>
<path class="st0" d="M355.7,328.4c-7.7,0-14,6.3-14,14s6.3,14,14,14s14-6.3,14-14S363.4,328.4,355.7,328.4z"/>
<path class="st0" d="M485.8,328.4c-7.7,0-14,6.3-14,14s6.3,14,14,14s14-6.3,14-14S493.5,328.4,485.8,328.4z"/>
</svg>
